Coordinates
version=1
nRows=4
nColumns=63
inDegrees=yes

Units are S.I. units (second, meters, Newtons, ...)
If the header above contains a line with 'inDegrees', this indicates whether rotational values are in degrees (yes) or radians (no).

endheader
time	pelvis_tilt	pelvis_list	pelvis_rotation	pelvis_tx	pelvis_ty	pelvis_tz	hip_flexion_r	hip_adduction_r	hip_rotation_r	knee_angle_r	knee_angle_r_beta	ankle_angle_r	subtalar_angle_r	mtp_angle_r	hip_flexion_l	hip_adduction_l	hip_rotation_l	knee_angle_l	knee_angle_l_beta	ankle_angle_l	subtalar_angle_l	mtp_angle_l	L5_S1_Flex_Ext	L5_S1_Lat_Bending	L5_S1_axial_rotation	L4_L5_Flex_Ext	L4_L5_Lat_Bending	L4_L5_axial_rotation	L3_L4_Flex_Ext	L3_L4_Lat_Bending	L3_L4_axial_rotation	L2_L3_Flex_Ext	L2_L3_Lat_Bending	L2_L3_axial_rotation	L1_L2_Flex_Ext	L1_L2_Lat_Bending	L1_L2_axial_rotation	L1_T12_Flex_Ext	L1_T12_Lat_Bending	L1_T12_axial_rotation	Abs_r3	Abs_r2	Abs_r1	Abs_t1	Abs_t2	neck_flexion	neck_bending	neck_rotation	arm_flex_r	arm_add_r	arm_rot_r	elbow_flex_r	pro_sup_r	wrist_flex_r	wrist_dev_r	arm_flex_l	arm_add_l	arm_rot_l	elbow_flex_l	pro_sup_l	wrist_flex_l	wrist_dev_l
      5.00000000	     -0.15032956	    -34.07797073	    102.34562221	      0.14915508	      0.58364217	      0.66441640	    143.93797490	    -20.72933325	     -4.44217407	    115.11999626	      2.00922297	     39.53501575	     -0.52586947	      0.00000000	    149.71767390	     11.33787311	     -5.42415741	    112.28741520	      1.95978510	     29.09499954	     -8.25721600	      0.00000000	     -0.62316811	      4.55690904	     -2.25216271	     -1.15728549	      6.06068903	     -2.39292288	     -1.02380288	     11.07966864	     -2.39292288	     -0.71221883	     11.07966864	     -1.97064237	     -0.57867390	      9.29244892	     -1.82988220	     -0.35607826	      7.05865211	     -1.68912203	     -4.45122746	     51.54866647	    -12.52585333	      0.00000000	      0.00000000	      9.02660207	    -10.06209952	     34.96368950	      3.17229757	    -58.56608932	    -13.21740331	     83.15884205	     87.07175728	    -10.77308031	     30.79436689	     85.63656137	    -33.15869551	     55.26325082	     78.39296193	     88.93665172	     19.05500557	     26.28898506
      5.01694915	     -1.31701520	    -34.61099746	    100.75474362	      0.15010045	      0.59156408	      0.65980314	    142.57610923	    -18.45468980	     -2.99131814	    116.53094196	      2.03384862	     40.66681418	      0.51583506	      0.00000000	    149.67472569	     10.28998060	     -4.82001493	    112.65355052	      1.96617537	     30.91756361	     -7.01638991	      0.00000000	     -0.53639939	      4.46942782	     -2.10820158	     -0.99614731	      5.94433901	     -2.23996418	     -0.88125056	     10.86696681	     -2.23996418	     -0.61305087	     10.86696681	     -1.84467638	     -0.49810048	      9.11405722	     -1.71291378	     -0.30649861	      6.92314370	     -1.58115119	     -3.83144722	     50.55906144	    -11.72518474	      0.00000000	      0.00000000	      5.23648847	     -9.23305547	     30.60511221	      4.01704545	    -58.10910942	    -10.77362578	     78.26264424	     87.55136920	    -12.87790991	     28.48603457	     84.59684833	    -32.79460771	     56.54020087	     77.94569059	     89.04059600	     16.18173060	     25.85034489
      5.03389831	     -3.21386474	    -35.43752648	     98.28649966	      0.15187437	      0.59786905	      0.65447146	    141.40476860	    -15.68858821	     -1.75283530	    117.71603216	      2.05453234	     41.81388960	      1.27213682	      0.00000000	    149.60843231	      8.54618924	     -4.32001816	    113.91616433	      1.98821214	     32.55819644	     -4.98819693	      0.00000000	     -0.40365405	      4.27660736	     -1.86980554	     -0.74962594	      5.68788779	     -1.98666839	     -0.66316325	     10.39814314	     -1.98666839	     -0.46133622	     10.39814314	     -1.63607985	     -0.37483315	      8.72085773	     -1.51921700	     -0.23064793	      6.62446480	     -1.40235416	     -2.88326054	     48.37783779	    -10.39929748	      0.00000000	      0.00000000	      1.62651167	     -8.80866125	     25.02420066	      4.94567941	    -57.55554600	     -7.74165224	     73.98016005	     88.13846180	    -15.64102643	     27.04256686	     83.74674108	    -32.47181165	     59.31500595	     77.90726260	     89.15327893	     10.62654562	     25.33402702
      5.05084746	     -5.63474712	    -36.42013331	     94.95647178	      0.15395285	      0.60298032	      0.64903532	    140.24278670	    -12.77112973	     -0.83485550	    118.58050615	      2.06962026	     43.17393144	      2.43562477	      0.00000000	    149.51747535	      6.28963130	     -3.77212876	    115.66110076	      2.01866702	     34.13106712	     -2.93841379	      0.00000000	     -0.26198020	      4.01267162	     -1.44247506	     -0.48652343	      5.33685325	     -1.53262975	     -0.43040727	      9.75640977	     -1.53262975	     -0.29941717	      9.75640977	     -1.26216568	     -0.24327481	      8.18263996	     -1.17201099	     -0.14969549	      6.21562833	     -1.08185630	     -1.87129837	     45.39214385	     -8.02261354	      0.00000000	      0.00000000	     -1.13257429	     -7.84415591	     18.38733108	      5.17284751	    -57.18103432	     -5.31221169	     70.63653038	     88.69915772	    -17.93113508	     27.09512389	     83.42813353	    -31.67191246	     63.36274831	     78.00921535	     89.21971077	      3.07912327	     24.89398614
